<?xml version="1.0" encoding="UTF-8"?>
<svg xmlns="http://www.w3.org/2000/svg" viewBox="0 0 32 32" shape-rendering="crispEdges" aria-label="Roxy drag reaction animated">
  <title>Roxy drag reaction</title>
  <defs>
    <style>
      .body { transform-origin: 16px 6px; animation: drag-sway 1.05s infinite alternate ease-in-out; }
      .shadow { transform-origin: 16px 28px; animation: drag-shadow 1.05s infinite alternate ease-in-out; }
      .wand { transform-origin: 16px 19px; animation: wand-sway 1.05s infinite alternate ease-in-out; }
      .stress { animation: stress .38s infinite alternate ease-in-out; }
      @keyframes drag-sway { 0% { transform: rotate(-3deg) translate(-1px,0); } 100% { transform: rotate(3deg) translate(1px,0);} }
      @keyframes drag-shadow { 0% { transform: scaleX(.84); opacity:.14; } 100% { transform: scaleX(.95); opacity:.22; } }
      @keyframes wand-sway { 0% { transform: rotate(-3deg) translate(-1px,0); } 100% { transform: rotate(3deg) translate(1px,0);} }
      @keyframes stress { 0% { opacity:.35; } 100% { opacity:.9; } }
    </style>
  </defs>
  <rect class="shadow" x="10" y="28" width="12" height="1" fill="#000" opacity="0.16"/>
  <g class="wand" transform="translate(-3, 1)">
    <rect x="26" y="8" width="1" height="1" fill="#aaaaaa"/>
    <rect x="27" y="8" width="1" height="1" fill="#aaaaaa"/>
    <rect x="28" y="8" width="1" height="1" fill="#666666"/>
    <rect x="29" y="8" width="1" height="1" fill="#ccccbb"/>
    <rect x="24" y="9" width="1" height="1" fill="#aaaaaa"/>
    <rect x="25" y="9" width="1" height="1" fill="#aaaaaa"/>
    <rect x="26" y="9" width="1" height="1" fill="#aaaaaa"/>
    <rect x="27" y="9" width="1" height="1" fill="#666666"/>
    <rect x="28" y="9" width="1" height="1" fill="#999999"/>
    <rect x="29" y="9" width="1" height="1" fill="#666666"/>
    <rect x="24" y="10" width="1" height="1" fill="#aaaaaa"/>
    <rect x="25" y="10" width="1" height="1" fill="#666666"/>
    <rect x="26" y="10" width="1" height="1" fill="#004499"/>
    <rect x="27" y="10" width="1" height="1" fill="#004499"/>
    <rect x="28" y="10" width="1" height="1" fill="#666666"/>
    <rect x="29" y="10" width="1" height="1" fill="#333333"/>
    <rect x="30" y="10" width="1" height="1" fill="#888888"/>
    <rect x="22" y="11" width="1" height="1" fill="#aaaaaa"/>
    <rect x="23" y="11" width="1" height="1" fill="#aaaaaa"/>
    <rect x="24" y="11" width="1" height="1" fill="#aaaaaa"/>
    <rect x="25" y="11" width="1" height="1" fill="#004499"/>
    <rect x="26" y="11" width="1" height="1" fill="#aaaa99"/>
    <rect x="27" y="11" width="1" height="1" fill="#004499"/>
    <rect x="28" y="11" width="1" height="1" fill="#999999"/>
    <rect x="29" y="11" width="1" height="1" fill="#666666"/>
    <rect x="30" y="11" width="1" height="1" fill="#ddcccc"/>
    <rect x="22" y="12" width="1" height="1" fill="#aaaaaa"/>
    <rect x="23" y="12" width="1" height="1" fill="#aaaaaa"/>
    <rect x="24" y="12" width="1" height="1" fill="#004499"/>
    <rect x="25" y="12" width="1" height="1" fill="#999988"/>
    <rect x="26" y="12" width="1" height="1" fill="#004499"/>
    <rect x="27" y="12" width="1" height="1" fill="#aaaaaa"/>
    <rect x="28" y="12" width="1" height="1" fill="#999999"/>
    <rect x="29" y="12" width="1" height="1" fill="#666666"/>
    <rect x="30" y="12" width="1" height="1" fill="#666666"/>
    <rect x="22" y="13" width="1" height="1" fill="#bbbbaa"/>
    <rect x="23" y="13" width="1" height="1" fill="#004499"/>
    <rect x="24" y="13" width="1" height="1" fill="#aaaaaa"/>
    <rect x="25" y="13" width="1" height="1" fill="#004499"/>
    <rect x="26" y="13" width="1" height="1" fill="#aaaaaa"/>
    <rect x="27" y="13" width="1" height="1" fill="#aaaa99"/>
    <rect x="28" y="13" width="1" height="1" fill="#aaaa99"/>
    <rect x="29" y="13" width="1" height="1" fill="#666666"/>
    <rect x="30" y="13" width="1" height="1" fill="#bbbbaa"/>
    <rect x="22" y="14" width="1" height="1" fill="#004499"/>
    <rect x="23" y="14" width="1" height="1" fill="#aaaaaa"/>
    <rect x="24" y="14" width="1" height="1" fill="#004499"/>
    <rect x="25" y="14" width="1" height="1" fill="#444444"/>
    <rect x="26" y="14" width="1" height="1" fill="#aaaaaa"/>
    <rect x="27" y="14" width="1" height="1" fill="#aaaaaa"/>
    <rect x="28" y="14" width="1" height="1" fill="#aaaa99"/>
    <rect x="29" y="14" width="1" height="1" fill="#999999"/>
    <rect x="30" y="14" width="1" height="1" fill="#666666"/>
    <rect x="20" y="15" width="1" height="1" fill="#ccccbb"/>
    <rect x="21" y="15" width="1" height="1" fill="#333333"/>
    <rect x="22" y="15" width="1" height="1" fill="#333333"/>
    <rect x="25" y="15" width="1" height="1" fill="#aaaaaa"/>
    <rect x="26" y="15" width="1" height="1" fill="#aaaaaa"/>
    <rect x="27" y="15" width="1" height="1" fill="#aaaaaa"/>
    <rect x="28" y="15" width="1" height="1" fill="#aaaaaa"/>
    <rect x="29" y="15" width="1" height="1" fill="#999999"/>
    <rect x="30" y="15" width="1" height="1" fill="#888877"/>
    <rect x="18" y="16" width="1" height="1" fill="#bbbbbb"/>
    <rect x="19" y="16" width="1" height="1" fill="#666666"/>
    <rect x="20" y="16" width="1" height="1" fill="#666666"/>
    <rect x="21" y="16" width="1" height="1" fill="#444444"/>
    <rect x="22" y="16" width="1" height="1" fill="#aaaaaa"/>
    <rect x="24" y="16" width="1" height="1" fill="#aaaaaa"/>
    <rect x="25" y="16" width="1" height="1" fill="#aaaaaa"/>
    <rect x="26" y="16" width="1" height="1" fill="#aaaaaa"/>
    <rect x="27" y="16" width="1" height="1" fill="#aaaaaa"/>
    <rect x="28" y="16" width="1" height="1" fill="#aaaaaa"/>
    <rect x="29" y="16" width="1" height="1" fill="#888888"/>
    <rect x="30" y="16" width="1" height="1" fill="#666666"/>
    <rect x="17" y="17" width="1" height="1" fill="#bbbbbb"/>
    <rect x="18" y="17" width="1" height="1" fill="#666666"/>
    <rect x="22" y="17" width="1" height="1" fill="#aaaaaa"/>
    <rect x="23" y="17" width="1" height="1" fill="#aaaaaa"/>
    <rect x="24" y="17" width="1" height="1" fill="#aaaaaa"/>
    <rect x="26" y="17" width="1" height="1" fill="#aaaaaa"/>
    <rect x="27" y="17" width="1" height="1" fill="#888877"/>
    <rect x="28" y="17" width="1" height="1" fill="#666666"/>
    <rect x="29" y="17" width="1" height="1" fill="#333333"/>
    <rect x="30" y="17" width="1" height="1" fill="#444444"/>
    <rect x="15" y="18" width="1" height="1" fill="#ccccbb"/>
    <rect x="16" y="18" width="1" height="1" fill="#666666"/>
    <rect x="17" y="18" width="1" height="1" fill="#666666"/>
    <rect x="26" y="18" width="1" height="1" fill="#888877"/>
    <rect x="27" y="18" width="1" height="1" fill="#666666"/>
    <rect x="13" y="19" width="1" height="1" fill="#bbccbb"/>
    <rect x="14" y="19" width="1" height="1" fill="#bbbbbb"/>
    <rect x="15" y="19" width="1" height="1" fill="#666666"/>
    <rect x="12" y="20" width="1" height="1" fill="#ccccbb"/>
    <rect x="13" y="20" width="1" height="1" fill="#666666"/>
    <rect x="14" y="20" width="1" height="1" fill="#666666"/>
    <rect x="11" y="21" width="1" height="1" fill="#ccccbb"/>
    <rect x="12" y="21" width="1" height="1" fill="#666666"/>
    <rect x="13" y="21" width="1" height="1" fill="#666666"/>
    <rect x="10" y="22" width="1" height="1" fill="#ccccbb"/>
    <rect x="11" y="22" width="1" height="1" fill="#666666"/>
    <rect x="8" y="23" width="1" height="1" fill="#ccccbb"/>
    <rect x="9" y="23" width="1" height="1" fill="#ddcccc"/>
    <rect x="7" y="24" width="1" height="1" fill="#ccccbb"/>
    <rect x="8" y="24" width="1" height="1" fill="#666666"/>
    <rect x="6" y="25" width="1" height="1" fill="#ddcccc"/>
    <rect x="7" y="25" width="1" height="1" fill="#666666"/>
    <rect x="4" y="26" width="1" height="1" fill="#aaaaaa"/>
    <rect x="5" y="26" width="1" height="1" fill="#666666"/>
    <rect x="6" y="26" width="1" height="1" fill="#ccccbb"/>
    <rect x="3" y="27" width="1" height="1" fill="#ccccbb"/>
    <rect x="4" y="27" width="1" height="1" fill="#888888"/>
    <rect x="1" y="28" width="1" height="1" fill="#aaaaaa"/>
    <rect x="2" y="28" width="1" height="1" fill="#ccccbb"/>
    <rect x="3" y="28" width="1" height="1" fill="#999999"/>
    <rect x="0" y="29" width="1" height="1" fill="#444444"/>
    <rect x="1" y="29" width="1" height="1" fill="#888877"/>
    <rect x="2" y="29" width="1" height="1" fill="#aaaaaa"/>
  </g>
  <g class="body">
    <rect x="15" y="4" width="1" height="1" fill="#8888aa"/>
    <rect x="14" y="5" width="1" height="1" fill="#8888aa"/>
    <rect x="14" y="6" width="1" height="1" fill="#8888bb"/>
    <rect x="12" y="7" width="1" height="1" fill="#aa99cc"/>
    <rect x="13" y="7" width="1" height="1" fill="#7777aa"/>
    <rect x="14" y="7" width="1" height="1" fill="#7777aa"/>
    <rect x="15" y="7" width="1" height="1" fill="#7777aa"/>
    <rect x="16" y="7" width="1" height="1" fill="#8877aa"/>
    <rect x="17" y="7" width="1" height="1" fill="#7777aa"/>
    <rect x="18" y="7" width="1" height="1" fill="#aa99cc"/>
    <rect x="11" y="8" width="1" height="1" fill="#aa99cc"/>
    <rect x="12" y="8" width="1" height="1" fill="#7777aa"/>
    <rect x="13" y="8" width="1" height="1" fill="#8877aa"/>
    <rect x="14" y="8" width="1" height="1" fill="#7777aa"/>
    <rect x="15" y="8" width="1" height="1" fill="#7777aa"/>
    <rect x="16" y="8" width="1" height="1" fill="#7777aa"/>
    <rect x="17" y="8" width="1" height="1" fill="#7777aa"/>
    <rect x="18" y="8" width="1" height="1" fill="#7788aa"/>
    <rect x="19" y="8" width="1" height="1" fill="#7777aa"/>
    <rect x="20" y="8" width="1" height="1" fill="#222222"/>
    <rect x="10" y="9" width="1" height="1" fill="#7777aa"/>
    <rect x="11" y="9" width="1" height="1" fill="#8877aa"/>
    <rect x="12" y="9" width="1" height="1" fill="#7777aa"/>
    <rect x="13" y="9" width="1" height="1" fill="#7777aa"/>
    <rect x="14" y="9" width="1" height="1" fill="#7777aa"/>
    <rect x="15" y="9" width="1" height="1" fill="#7788aa"/>
    <rect x="16" y="9" width="1" height="1" fill="#7777aa"/>
    <rect x="17" y="9" width="1" height="1" fill="#7777aa"/>
    <rect x="18" y="9" width="1" height="1" fill="#7777aa"/>
    <rect x="19" y="9" width="1" height="1" fill="#7777aa"/>
    <rect x="20" y="9" width="1" height="1" fill="#aa99cc"/>
    <rect x="10" y="10" width="1" height="1" fill="#bbaadd"/>
    <rect x="11" y="10" width="1" height="1" fill="#aa99cc"/>
    <rect x="12" y="10" width="1" height="1" fill="#7777aa"/>
    <rect x="13" y="10" width="1" height="1" fill="#7777aa"/>
    <rect x="14" y="10" width="1" height="1" fill="#bb99cc"/>
    <rect x="15" y="10" width="1" height="1" fill="#7777aa"/>
    <rect x="16" y="10" width="1" height="1" fill="#7777aa"/>
    <rect x="17" y="10" width="1" height="1" fill="#aa99cc"/>
    <rect x="18" y="10" width="1" height="1" fill="#7777aa"/>
    <rect x="19" y="10" width="1" height="1" fill="#7777aa"/>
    <rect x="20" y="10" width="1" height="1" fill="#8877aa"/>
    <rect x="21" y="10" width="1" height="1" fill="#332244"/>
    <rect x="9" y="11" width="1" height="1" fill="#8888bb"/>
    <rect x="10" y="11" width="1" height="1" fill="#7777aa"/>
    <rect x="11" y="11" width="1" height="1" fill="#7777aa"/>
    <rect x="12" y="11" width="1" height="1" fill="#443366"/>
    <rect x="13" y="11" width="1" height="1" fill="#444466"/>
    <rect x="14" y="11" width="1" height="1" fill="#7777aa"/>
    <rect x="15" y="11" width="1" height="1" fill="#7788aa"/>
    <rect x="16" y="11" width="1" height="1" fill="#7777aa"/>
    <rect x="17" y="11" width="1" height="1" fill="#7777aa"/>
    <rect x="18" y="11" width="1" height="1" fill="#7777aa"/>
    <rect x="19" y="11" width="1" height="1" fill="#7777aa"/>
    <rect x="20" y="11" width="1" height="1" fill="#7777aa"/>
    <rect x="21" y="11" width="1" height="1" fill="#7777aa"/>
    <rect x="9" y="12" width="1" height="1" fill="#8888bb"/>
    <rect x="10" y="12" width="1" height="1" fill="#7777aa"/>
    <rect x="11" y="12" width="1" height="1" fill="#7777aa"/>
    <rect x="12" y="12" width="1" height="1" fill="#7777aa"/>
    <rect x="13" y="12" width="1" height="1" fill="#665544"/>
    <rect x="14" y="12" width="1" height="1" fill="#7777aa"/>
    <rect x="15" y="12" width="1" height="1" fill="#7777aa"/>
    <rect x="16" y="12" width="1" height="1" fill="#7777aa"/>
    <rect x="17" y="12" width="1" height="1" fill="#7777aa"/>
    <rect x="18" y="12" width="1" height="1" fill="#444466"/>
    <rect x="19" y="12" width="1" height="1" fill="#7777aa"/>
    <rect x="20" y="12" width="1" height="1" fill="#7777aa"/>
    <rect x="21" y="12" width="1" height="1" fill="#7777aa"/>
    <rect x="9" y="13" width="1" height="1" fill="#8888bb"/>
    <rect x="10" y="13" width="1" height="1" fill="#7777aa"/>
    <rect x="11" y="13" width="1" height="1" fill="#7777aa"/>
    <rect x="12" y="13" width="1" height="1" fill="#7777aa"/>
    <rect x="13" y="13" width="1" height="1" fill="#ccaa88"/>
    <rect x="14" y="13" width="1" height="1" fill="#7777aa"/>
    <rect x="15" y="13" width="1" height="1" fill="#7777aa"/>
    <rect x="16" y="13" width="1" height="1" fill="#7777aa"/>
    <rect x="17" y="13" width="1" height="1" fill="#7777aa"/>
    <rect x="18" y="13" width="1" height="1" fill="#7777aa"/>
    <rect x="19" y="13" width="1" height="1" fill="#ccaa88"/>
    <rect x="20" y="13" width="1" height="1" fill="#7777aa"/>
    <rect x="21" y="13" width="1" height="1" fill="#7777aa"/>
    <rect x="9" y="14" width="1" height="1" fill="#7777aa"/>
    <rect x="10" y="14" width="1" height="1" fill="#7777aa"/>
    <rect x="11" y="14" width="1" height="1" fill="#aa8877"/>
    <rect x="12" y="14" width="1" height="1" fill="#222233"/>
    <rect x="14" y="14" width="1" height="1" fill="#7777aa"/>
    <rect x="15" y="14" width="1" height="1" fill="#eebbaa"/>
    <rect x="16" y="14" width="1" height="1" fill="#eebbaa"/>
    <rect x="17" y="14" width="1" height="1" fill="#7777aa"/>
    <rect x="18" y="14" width="1" height="1" fill="#222233"/>
    <rect x="19" y="14" width="1" height="1" fill="#aa8877"/>
    <rect x="20" y="14" width="1" height="1" fill="#7777aa"/>
    <rect x="21" y="14" width="1" height="1" fill="#7777aa"/>
    <rect x="9" y="15" width="1" height="1" fill="#222233"/>
    <rect x="10" y="15" width="1" height="1" fill="#333355"/>
    <rect x="11" y="15" width="1" height="1" fill="#7777aa"/>
    <rect x="12" y="15" width="1" height="1" fill="#eebbaa"/>
    <rect x="13" y="15" width="1" height="1" fill="#ffeeee"/>
    <rect x="14" y="15" width="1" height="1" fill="#7381B1"/>
    <rect x="15" y="15" width="1" height="1" fill="#eebbaa"/>
    <rect x="16" y="15" width="1" height="1" fill="#eebbaa"/>
    <rect x="17" y="15" width="1" height="1" fill="#7381B1"/>
    <rect x="18" y="15" width="1" height="1" fill="#ffeeee"/>
    <rect x="19" y="15" width="1" height="1" fill="#eebbaa"/>
    <rect x="20" y="15" width="1" height="1" fill="#7777aa"/>
    <rect x="21" y="15" width="1" height="1" fill="#333355"/>
    <rect x="22" y="15" width="1" height="1" fill="#222233"/>
    <rect x="9" y="16" width="1" height="1" fill="#444466"/>
    <rect x="10" y="16" width="1" height="1" fill="#444466"/>
    <rect x="11" y="16" width="1" height="1" fill="#332244"/>
    <rect x="12" y="16" width="1" height="1" fill="#7777aa"/>
    <rect x="13" y="16" width="1" height="1" fill="#eebbaa"/>
    <rect x="14" y="16" width="1" height="1" fill="#eebbaa"/>
    <rect x="15" y="16" width="1" height="1" fill="#eebbaa"/>
    <rect x="16" y="16" width="1" height="1" fill="#eebbaa"/>
    <rect x="17" y="16" width="1" height="1" fill="#eebbaa"/>
    <rect x="18" y="16" width="1" height="1" fill="#eebbaa"/>
    <rect x="19" y="16" width="1" height="1" fill="#222233"/>
    <rect x="20" y="16" width="1" height="1" fill="#7777aa"/>
    <rect x="21" y="16" width="1" height="1" fill="#7777aa"/>
    <rect x="10" y="17" width="1" height="1" fill="#7777aa"/>
    <rect x="11" y="17" width="1" height="1" fill="#7777aa"/>
    <rect x="12" y="17" width="1" height="1" fill="#333355"/>
    <rect x="13" y="17" width="1" height="1" fill="#eecc99"/>
    <rect x="14" y="17" width="1" height="1" fill="#eebbaa"/>
    <rect x="15" y="17" width="1" height="1" fill="#eebbaa"/>
    <rect x="16" y="17" width="1" height="1" fill="#eebbaa"/>
    <rect x="17" y="17" width="1" height="1" fill="#eebbaa"/>
    <rect x="18" y="17" width="1" height="1" fill="#665544"/>
    <rect x="19" y="17" width="1" height="1" fill="#222233"/>
    <rect x="20" y="17" width="1" height="1" fill="#7777aa"/>
    <rect x="21" y="17" width="1" height="1" fill="#7777aa"/>
    <rect x="22" y="17" width="1" height="1" fill="#8877aa"/>
    <rect x="10" y="18" width="1" height="1" fill="#7777aa"/>
    <rect x="11" y="18" width="1" height="1" fill="#444466"/>
    <rect x="12" y="18" width="1" height="1" fill="#444466"/>
    <rect x="13" y="18" width="1" height="1" fill="#443366"/>
    <rect x="14" y="18" width="1" height="1" fill="#aa8877"/>
    <rect x="15" y="18" width="1" height="1" fill="#665544"/>
    <rect x="16" y="18" width="1" height="1" fill="#aa8877"/>
    <rect x="17" y="18" width="1" height="1" fill="#aa8877"/>
    <rect x="18" y="18" width="1" height="1" fill="#444466"/>
    <rect x="19" y="18" width="1" height="1" fill="#332244"/>
    <rect x="20" y="18" width="1" height="1" fill="#333355"/>
    <rect x="21" y="18" width="1" height="1" fill="#332244"/>
    <rect x="9" y="19" width="1" height="1" fill="#332244"/>
    <rect x="10" y="19" width="1" height="1" fill="#7777aa"/>
    <rect x="11" y="19" width="1" height="1" fill="#444466"/>
    <rect x="12" y="19" width="1" height="1" fill="#332244"/>
    <rect x="13" y="19" width="1" height="1" fill="#ffeeee"/>
    <rect x="14" y="19" width="1" height="1" fill="#222222"/>
    <rect x="15" y="19" width="1" height="1" fill="#ffeeee"/>
    <rect x="16" y="19" width="1" height="1" fill="#ffeeee"/>
    <rect x="17" y="19" width="1" height="1" fill="#222222"/>
    <rect x="18" y="19" width="1" height="1" fill="#ffeeee"/>
    <rect x="19" y="19" width="1" height="1" fill="#332244"/>
    <rect x="20" y="19" width="1" height="1" fill="#444466"/>
    <rect x="21" y="19" width="1" height="1" fill="#7777aa"/>
    <rect x="22" y="19" width="1" height="1" fill="#332244"/>
    <rect x="9" y="20" width="1" height="1" fill="#332244"/>
    <rect x="10" y="20" width="1" height="1" fill="#333355"/>
    <rect x="11" y="20" width="1" height="1" fill="#7777aa"/>
    <rect x="12" y="20" width="1" height="1" fill="#aa8877"/>
    <rect x="13" y="20" width="1" height="1" fill="#ffeeee"/>
    <rect x="14" y="20" width="1" height="1" fill="#222222"/>
    <rect x="15" y="20" width="1" height="1" fill="#eebbaa"/>
    <rect x="16" y="20" width="1" height="1" fill="#eebbaa"/>
    <rect x="17" y="20" width="1" height="1" fill="#222222"/>
    <rect x="18" y="20" width="1" height="1" fill="#ffeeee"/>
    <rect x="19" y="20" width="1" height="1" fill="#aa8877"/>
    <rect x="20" y="20" width="1" height="1" fill="#7777aa"/>
    <rect x="21" y="20" width="1" height="1" fill="#443366"/>
    <rect x="22" y="20" width="1" height="1" fill="#332244"/>
    <rect x="9" y="21" width="1" height="1" fill="#7777aa"/>
    <rect x="10" y="21" width="1" height="1" fill="#333355"/>
    <rect x="11" y="21" width="1" height="1" fill="#332244"/>
    <rect x="12" y="21" width="1" height="1" fill="#aa8877"/>
    <rect x="13" y="21" width="1" height="1" fill="#332244"/>
    <rect x="14" y="21" width="1" height="1" fill="#222222"/>
    <rect x="15" y="21" width="1" height="1" fill="#7777aa"/>
    <rect x="16" y="21" width="1" height="1" fill="#7777aa"/>
    <rect x="17" y="21" width="1" height="1" fill="#222222"/>
    <rect x="18" y="21" width="1" height="1" fill="#332244"/>
    <rect x="19" y="21" width="1" height="1" fill="#aa8877"/>
    <rect x="20" y="21" width="1" height="1" fill="#444466"/>
    <rect x="21" y="21" width="1" height="1" fill="#333355"/>
    <rect x="22" y="21" width="1" height="1" fill="#7777aa"/>
    <rect x="9" y="22" width="1" height="1" fill="#444466"/>
    <rect x="10" y="22" width="1" height="1" fill="#222233"/>
    <rect x="12" y="22" width="1" height="1" fill="#aa8877"/>
    <rect x="13" y="22" width="1" height="1" fill="#ffeeee"/>
    <rect x="14" y="22" width="1" height="1" fill="#222222"/>
    <rect x="15" y="22" width="1" height="1" fill="#222222"/>
    <rect x="17" y="22" width="1" height="1" fill="#222222"/>
    <rect x="18" y="22" width="1" height="1" fill="#ffeeee"/>
    <rect x="19" y="22" width="1" height="1" fill="#aa8877"/>
    <rect x="21" y="22" width="1" height="1" fill="#222233"/>
    <rect x="22" y="22" width="1" height="1" fill="#7777aa"/>
    <rect x="8" y="23" width="1" height="1" fill="#332244"/>
    <rect x="9" y="23" width="1" height="1" fill="#444466"/>
    <rect x="13" y="23" width="1" height="1" fill="#222222"/>
    <rect x="14" y="23" width="1" height="1" fill="#222222"/>
    <rect x="15" y="23" width="1" height="1" fill="#aa8877"/>
    <rect x="16" y="23" width="1" height="1" fill="#aa8877"/>
    <rect x="17" y="23" width="1" height="1" fill="#222222"/>
    <rect x="18" y="23" width="1" height="1" fill="#222222"/>
    <rect x="22" y="23" width="1" height="1" fill="#444466"/>
    <rect x="23" y="23" width="1" height="1" fill="#333355"/>
    <rect x="9" y="24" width="1" height="1" fill="#444466"/>
    <rect x="12" y="24" width="1" height="1" fill="#222222"/>
    <rect x="13" y="24" width="1" height="1" fill="#222222"/>
    <rect x="14" y="24" width="1" height="1" fill="#665544"/>
    <rect x="15" y="24" width="1" height="1" fill="#aa8877"/>
    <rect x="16" y="24" width="1" height="1" fill="#aa8877"/>
    <rect x="17" y="24" width="1" height="1" fill="#665544"/>
    <rect x="18" y="24" width="1" height="1" fill="#222222"/>
    <rect x="19" y="24" width="1" height="1" fill="#222222"/>
    <rect x="22" y="24" width="1" height="1" fill="#444466"/>
    <rect x="9" y="25" width="1" height="1" fill="#444466"/>
    <rect x="14" y="25" width="1" height="1" fill="#eebbaa"/>
    <rect x="17" y="25" width="1" height="1" fill="#aa8877"/>
    <rect x="22" y="25" width="1" height="1" fill="#7777aa"/>
  </g>

</svg>
